<svg 
  xmlns="http://www.w3.org/2000/svg" 
  width="16" 
  height="17" 
  viewBox="0 0 16 17" 
  fill="currentColor" 
  aria-hidden="true"
>
  <path d="M2.61997 11.7667L3.33497 11.0567C2.55208 10.3538 1.93696 9.48406 1.53497 8.51172C2.54997 5.97672 5.34997 4.01172 7.99997 4.01172C8.68192 4.02072 9.35769 4.14236 9.99997 4.37172L10.775 3.59172C9.8963 3.22038 8.95382 3.02339 7.99997 3.01172C6.37023 3.07301 4.79416 3.6105 3.46657 4.55776C2.13898 5.50503 1.11805 6.82054 0.52997 8.34172C0.490254 8.45157 0.490254 8.57187 0.52997 8.68172C0.974094 9.86023 1.69018 10.9172 2.61997 11.7667Z" />
  <path d="M5.99997 8.37672C6.03474 7.89758 6.24082 7.44696 6.58051 7.10726C6.92021 6.76756 7.37083 6.56149 7.84997 6.52672L8.75497 5.61672C8.24785 5.48319 7.71459 5.48493 7.20835 5.62175C6.70211 5.75857 6.24058 6.02571 5.86977 6.39652C5.49896 6.76733 5.23182 7.22886 5.095 7.7351C4.95818 8.24134 4.95644 8.7746 5.08997 9.28172L5.99997 8.37672Z" />
  <path d="M15.47 8.34172C14.8966 6.84832 13.899 5.55523 12.6 4.62172L15 2.21672L14.295 1.51172L0.99997 14.8067L1.70497 15.5117L4.25497 12.9617C5.39191 13.6287 6.68199 13.9904 7.99997 14.0117C9.62971 13.9504 11.2058 13.4129 12.5334 12.4657C13.861 11.5184 14.8819 10.2029 15.47 8.68172C15.5097 8.57187 15.5097 8.45157 15.47 8.34172ZM9.99997 8.51172C9.99786 8.86177 9.90392 9.20514 9.72752 9.5075C9.55113 9.80987 9.29846 10.0606 8.99477 10.2347C8.69109 10.4089 8.34702 10.5002 7.99697 10.4997C7.64691 10.4992 7.30312 10.4068 6.99997 10.2317L9.71997 7.51172C9.89972 7.81458 9.99631 8.15955 9.99997 8.51172ZM7.99997 13.0117C6.951 12.9934 5.92192 12.7224 4.99997 12.2217L6.26997 10.9517C6.84764 11.3525 7.54774 11.5377 8.24804 11.475C8.94833 11.4122 9.60434 11.1054 10.1015 10.6083C10.5987 10.1111 10.9054 9.45508 10.9682 8.75478C11.031 8.05449 10.8458 7.35439 10.445 6.77672L11.88 5.34172C13.0273 6.12921 13.9244 7.22943 14.465 8.51172C13.45 11.0467 10.65 13.0117 7.99997 13.0117Z" />
</svg>